REM DIRINDEX 1\2\4\8,1\2\4\9,1\2\4\10,1\2\5\11,1\2\5\12,1\2\5\13,1\2\5\14,1\2\5\15,1\3\6\16,1\3\6\17,1\3\6\18,1\3\7\19,1\3\7\20,1\3\7\21,1\3\7\22,1\3\7\23
REM DIRNAME "folder01","folder02","folder03","folder04","folder05","folder06","folder07","folder08","folder09","folder10","folder11","folder12","folder13","folder14","folder15","folder16","folder17","folder18","folder19","folder20","folder21","folder22","folder23"
TITLE ""
FILE "LR_black_phrase_A06.mp3" MP3
  TRACK 01 AUDIO
    TITLE "0:"
    INDEX 01 00:00:00
  TRACK 02 AUDIO
    TITLE "19:cjc171_11751"
    INDEX 01 00:00:14
  TRACK 03 AUDIO
    TITLE "0:"
    INDEX 01 00:01:37
  TRACK 04 AUDIO
    TITLE "20:cjc171_11752"
    INDEX 01 00:02:01
  TRACK 05 AUDIO
    TITLE "0:"
    INDEX 01 00:04:24
  TRACK 06 AUDIO
    TITLE "21:cjc171_11753"
    INDEX 01 00:05:21
  TRACK 07 AUDIO
    TITLE "0:"
    INDEX 01 00:07:03
  TRACK 08 AUDIO
    TITLE "22:cjc171_11754"
    INDEX 01 00:07:42
  TRACK 09 AUDIO
    TITLE "0:"
    INDEX 01 00:09:29
  TRACK 10 AUDIO
    TITLE "23:cjc171_11755"
    INDEX 01 00:09:58
  TRACK 11 AUDIO
    TITLE "0:"
    INDEX 01 00:11:43
  TRACK 12 AUDIO
    TITLE "19:cjc171_11756"
    INDEX 01 00:12:47
  TRACK 13 AUDIO
    TITLE "0:"
    INDEX 01 00:13:70
  TRACK 14 AUDIO
    TITLE "20:cjc171_11757"
    INDEX 01 00:14:36
  TRACK 15 AUDIO
    TITLE "0:"
    INDEX 01 00:18:18
  TRACK 16 AUDIO
    TITLE "21:cjc171_11758"
    INDEX 01 00:19:17
  TRACK 17 AUDIO
    TITLE "0:"
    INDEX 01 00:22:06
  TRACK 18 AUDIO
    TITLE "22:cjc171_11759"
    INDEX 01 00:22:45
  TRACK 19 AUDIO
    TITLE "0:"
    INDEX 01 00:25:04
  TRACK 20 AUDIO
    TITLE "23:cjc171_11760"
    INDEX 01 00:25:32
  TRACK 21 AUDIO
    TITLE "0:"
    INDEX 01 00:27:64
  TRACK 22 AUDIO
    TITLE "19:cjc171_11761"
    INDEX 01 00:28:69
  TRACK 23 AUDIO
    TITLE "0:"
    INDEX 01 00:30:06
  TRACK 24 AUDIO
    TITLE "20:cjc171_11762"
    INDEX 01 00:30:45
  TRACK 25 AUDIO
    TITLE "0:"
    INDEX 01 00:33:06
  TRACK 26 AUDIO
    TITLE "21:cjc171_11763"
    INDEX 01 00:34:01
  TRACK 27 AUDIO
    TITLE "0:"
    INDEX 01 00:36:20
  TRACK 28 AUDIO
    TITLE "22:cjc171_11764"
    INDEX 01 00:36:57
  TRACK 29 AUDIO
    TITLE "0:"
    INDEX 01 00:39:20
  TRACK 30 AUDIO
    TITLE "23:cjc171_11765"
    INDEX 01 00:39:51
  TRACK 31 AUDIO
    TITLE "0:"
    INDEX 01 00:42:13
  TRACK 32 AUDIO
    TITLE "19:cjc171_11766"
    INDEX 01 00:43:12
  TRACK 33 AUDIO
    TITLE "0:"
    INDEX 01 00:44:25
  TRACK 34 AUDIO
    TITLE "20:cjc171_11767"
    INDEX 01 00:44:60
  TRACK 35 AUDIO
    TITLE "0:"
    INDEX 01 00:47:08
  TRACK 36 AUDIO
    TITLE "21:cjc171_11768"
    INDEX 01 00:48:03
  TRACK 37 AUDIO
    TITLE "0:"
    INDEX 01 00:50:04
  TRACK 38 AUDIO
    TITLE "22:cjc171_11769"
    INDEX 01 00:50:40
  TRACK 39 AUDIO
    TITLE "0:"
    INDEX 01 00:52:54
  TRACK 40 AUDIO
    TITLE "23:cjc171_11770"
    INDEX 01 00:52:74
  TRACK 41 AUDIO
    TITLE "0:"
    INDEX 01 00:55:15
  TRACK 42 AUDIO
    TITLE "19:cjc171_11771"
    INDEX 01 00:56:11
  TRACK 43 AUDIO
    TITLE "0:"
    INDEX 01 00:57:16
  TRACK 44 AUDIO
    TITLE "20:cjc171_11772"
    INDEX 01 00:57:51
  TRACK 45 AUDIO
    TITLE "0:"
    INDEX 01 01:00:03
  TRACK 46 AUDIO
    TITLE "21:cjc171_11773"
    INDEX 01 01:00:75
  TRACK 47 AUDIO
    TITLE "0:"
    INDEX 01 01:03:07
  TRACK 48 AUDIO
    TITLE "22:cjc171_11774"
    INDEX 01 01:03:42
  TRACK 49 AUDIO
    TITLE "0:"
    INDEX 01 01:06:05
  TRACK 50 AUDIO
    TITLE "23:cjc171_11775"
    INDEX 01 01:06:25
  TRACK 51 AUDIO
    TITLE "0:"
    INDEX 01 01:08:65
  TRACK 52 AUDIO
    TITLE "19:cjc171_11776"
    INDEX 01 01:09:60
  TRACK 53 AUDIO
    TITLE "0:"
    INDEX 01 01:10:66
  TRACK 54 AUDIO
    TITLE "20:cjc171_11777"
    INDEX 01 01:11:26
  TRACK 55 AUDIO
    TITLE "0:"
    INDEX 01 01:13:66
  TRACK 56 AUDIO
    TITLE "21:cjc171_11778"
    INDEX 01 01:14:67
  TRACK 57 AUDIO
    TITLE "0:"
    INDEX 01 01:17:64
  TRACK 58 AUDIO
    TITLE "22:cjc171_11779"
    INDEX 01 01:18:22
  TRACK 59 AUDIO
    TITLE "0:"
    INDEX 01 01:21:15
  TRACK 60 AUDIO
    TITLE "23:cjc171_11780"
    INDEX 01 01:21:34
  TRACK 61 AUDIO
    TITLE "0:"
    INDEX 01 01:24:27
  TRACK 62 AUDIO
    TITLE "19:cjc171_11781"
    INDEX 01 01:25:30
  TRACK 63 AUDIO
    TITLE "0:"
    INDEX 01 01:26:47
  TRACK 64 AUDIO
    TITLE "20:cjc171_11782"
    INDEX 01 01:27:11
  TRACK 65 AUDIO
    TITLE "0:"
    INDEX 01 01:30:12
  TRACK 66 AUDIO
    TITLE "21:cjc171_11783"
    INDEX 01 01:31:11
  TRACK 67 AUDIO
    TITLE "0:"
    INDEX 01 01:34:09
  TRACK 68 AUDIO
    TITLE "22:cjc171_11784"
    INDEX 01 01:34:49
  TRACK 69 AUDIO
    TITLE "0:"
    INDEX 01 01:37:35
  TRACK 70 AUDIO
    TITLE "23:cjc171_11785"
    INDEX 01 01:37:65
  TRACK 71 AUDIO
    TITLE "0:"
    INDEX 01 01:40:49
  TRACK 72 AUDIO
    TITLE "19:cjc171_11786"
    INDEX 01 01:41:55
  TRACK 73 AUDIO
    TITLE "0:"
    INDEX 01 01:42:64
  TRACK 74 AUDIO
    TITLE "20:cjc171_11787"
    INDEX 01 01:43:30
  TRACK 75 AUDIO
    TITLE "0:"
    INDEX 01 01:45:48
  TRACK 76 AUDIO
    TITLE "21:cjc171_11788"
    INDEX 01 01:46:46
  TRACK 77 AUDIO
    TITLE "0:"
    INDEX 01 01:48:66
  TRACK 78 AUDIO
    TITLE "22:cjc171_11789"
    INDEX 01 01:49:31
  TRACK 79 AUDIO
    TITLE "0:"
    INDEX 01 01:51:57
  TRACK 80 AUDIO
    TITLE "23:cjc171_11790"
    INDEX 01 01:52:13
  TRACK 81 AUDIO
    TITLE "0:"
    INDEX 01 01:54:40
  TRACK 82 AUDIO
    TITLE "19:cjc171_11791"
    INDEX 01 01:55:45
  TRACK 83 AUDIO
    TITLE "0:"
    INDEX 01 01:56:70
  TRACK 84 AUDIO
    TITLE "20:cjc171_11792"
    INDEX 01 01:57:30
  TRACK 85 AUDIO
    TITLE "0:"
    INDEX 01 01:58:49
  TRACK 86 AUDIO
    TITLE "21:cjc171_11793"
    INDEX 01 01:59:47
  TRACK 87 AUDIO
    TITLE "0:"
    INDEX 01 02:02:21
  TRACK 88 AUDIO
    TITLE "22:cjc171_11794"
    INDEX 01 02:02:61
  TRACK 89 AUDIO
    TITLE "0:"
    INDEX 01 02:04:75
  TRACK 90 AUDIO
    TITLE "23:cjc171_11795"
    INDEX 01 02:05:30
  TRACK 91 AUDIO
    TITLE "0:"
    INDEX 01 02:07:44
  TRACK 92 AUDIO
    TITLE "19:cjc171_11796"
    INDEX 01 02:08:46
  TRACK 93 AUDIO
    TITLE "0:"
    INDEX 01 02:09:65
  TRACK 94 AUDIO
    TITLE "20:cjc171_11797"
    INDEX 01 02:10:27
  TRACK 95 AUDIO
    TITLE "0:"
    INDEX 01 02:11:64
  TRACK 96 AUDIO
    TITLE "21:cjc171_11798"
    INDEX 01 02:12:63
  TRACK 97 AUDIO
    TITLE "0:"
    INDEX 01 02:15:04
  TRACK 98 AUDIO
    TITLE "22:cjc171_11799"
    INDEX 01 02:15:38
  TRACK 99 AUDIO
    TITLE "0:"
    INDEX 01 02:17:66
  TRACK 100 AUDIO
    TITLE "23:cjc171_11800"
    INDEX 01 02:18:20
  TRACK 101 AUDIO
    TITLE "0:"
    INDEX 01 02:20:47
  TRACK 102 AUDIO
    TITLE "19:cjc171_11801"
    INDEX 01 02:21:46
  TRACK 103 AUDIO
    TITLE "0:"
    INDEX 01 02:22:67
  TRACK 104 AUDIO
    TITLE "20:cjc171_11802"
    INDEX 01 02:23:29
  TRACK 105 AUDIO
    TITLE "0:"
    INDEX 01 02:24:54
  TRACK 106 AUDIO
    TITLE "21:cjc171_11803"
    INDEX 01 02:25:58
  TRACK 107 AUDIO
    TITLE "0:"
    INDEX 01 02:27:02
  TRACK 108 AUDIO
    TITLE "22:cjc171_11804"
    INDEX 01 02:27:37
  TRACK 109 AUDIO
    TITLE "0:"
    INDEX 01 02:29:38
  TRACK 110 AUDIO
    TITLE "23:cjc171_11805"
    INDEX 01 02:29:59
  TRACK 111 AUDIO
    TITLE "0:"
    INDEX 01 02:31:60
  TRACK 112 AUDIO
    TITLE "19:cjc171_11806"
    INDEX 01 02:32:58
  TRACK 113 AUDIO
    TITLE "0:"
    INDEX 01 02:33:69
  TRACK 114 AUDIO
    TITLE "20:cjc171_11807"
    INDEX 01 02:34:29
  TRACK 115 AUDIO
    TITLE "0:"
    INDEX 01 02:36:38
  TRACK 116 AUDIO
    TITLE "21:cjc171_11808"
    INDEX 01 02:37:37
  TRACK 117 AUDIO
    TITLE "0:"
    INDEX 01 02:39:56
  TRACK 118 AUDIO
    TITLE "22:cjc171_11809"
    INDEX 01 02:40:14
  TRACK 119 AUDIO
    TITLE "0:"
    INDEX 01 02:42:66
  TRACK 120 AUDIO
    TITLE "23:cjc171_11810"
    INDEX 01 02:43:11
  TRACK 121 AUDIO
    TITLE "0:"
    INDEX 01 02:45:64
  TRACK 122 AUDIO
    TITLE "19:cjc171_11811"
    INDEX 01 02:46:64
  TRACK 123 AUDIO
    TITLE "0:"
    INDEX 01 02:48:04
  TRACK 124 AUDIO
    TITLE "20:cjc171_11812"
    INDEX 01 02:48:43
  TRACK 125 AUDIO
    TITLE "0:"
    INDEX 01 02:50:26
  TRACK 126 AUDIO
    TITLE "21:cjc171_11813"
    INDEX 01 02:51:26
  TRACK 127 AUDIO
    TITLE "0:"
    INDEX 01 02:54:44
  TRACK 128 AUDIO
    TITLE "22:cjc171_11814"
    INDEX 01 02:55:12
  TRACK 129 AUDIO
    TITLE "0:"
    INDEX 01 02:57:71
  TRACK 130 AUDIO
    TITLE "23:cjc171_11815"
    INDEX 01 02:58:26
  TRACK 131 AUDIO
    TITLE "0:"
    INDEX 01 03:01:12
  TRACK 132 AUDIO
    TITLE "19:cjc171_11816"
    INDEX 01 03:02:18
  TRACK 133 AUDIO
    TITLE "0:"
    INDEX 01 03:03:37
  TRACK 134 AUDIO
    TITLE "20:cjc171_11817"
    INDEX 01 03:04:01
  TRACK 135 AUDIO
    TITLE "0:"
    INDEX 01 03:06:29
  TRACK 136 AUDIO
    TITLE "21:cjc171_11818"
    INDEX 01 03:07:29
  TRACK 137 AUDIO
    TITLE "0:"
    INDEX 01 03:08:75
  TRACK 138 AUDIO
    TITLE "22:cjc171_11819"
    INDEX 01 03:09:39
  TRACK 139 AUDIO
    TITLE "0:"
    INDEX 01 03:11:66
  TRACK 140 AUDIO
    TITLE "23:cjc171_11820"
    INDEX 01 03:12:22
  TRACK 141 AUDIO
    TITLE "0:"
    INDEX 01 03:14:48
  TRACK 142 AUDIO
    TITLE "19:cjc171_11821"
    INDEX 01 03:15:54
  TRACK 143 AUDIO
    TITLE "0:"
    INDEX 01 03:17:15
  TRACK 144 AUDIO
    TITLE "20:cjc171_11822"
    INDEX 01 03:17:55
  TRACK 145 AUDIO
    TITLE "0:"
    INDEX 01 03:19:14
  TRACK 146 AUDIO
    TITLE "21:cjc171_11823"
    INDEX 01 03:20:16
  TRACK 147 AUDIO
    TITLE "0:"
    INDEX 01 03:23:36
  TRACK 148 AUDIO
    TITLE "22:cjc171_11824"
    INDEX 01 03:23:75
  TRACK 149 AUDIO
    TITLE "0:"
    INDEX 01 03:27:04
  TRACK 150 AUDIO
    TITLE "23:cjc171_11825"
    INDEX 01 03:27:29
  TRACK 151 AUDIO
    TITLE "0:"
    INDEX 01 03:30:34
  TRACK 152 AUDIO
    TITLE "19:cjc171_11826"
    INDEX 01 03:31:29
  TRACK 153 AUDIO
    TITLE "0:"
    INDEX 01 03:32:40
  TRACK 154 AUDIO
    TITLE "20:cjc171_11827"
    INDEX 01 03:32:74
  TRACK 155 AUDIO
    TITLE "0:"
    INDEX 01 03:35:43
  TRACK 156 AUDIO
    TITLE "21:cjc171_11828"
    INDEX 01 03:36:42
  TRACK 157 AUDIO
    TITLE "0:"
    INDEX 01 03:38:31
  TRACK 158 AUDIO
    TITLE "22:cjc171_11829"
    INDEX 01 03:38:66
  TRACK 159 AUDIO
    TITLE "0:"
    INDEX 01 03:40:58
  TRACK 160 AUDIO
    TITLE "23:cjc171_11830"
    INDEX 01 03:41:04
  TRACK 161 AUDIO
    TITLE "0:"
    INDEX 01 03:42:70
  TRACK 162 AUDIO
    TITLE "19:cjc171_11831"
    INDEX 01 03:43:66
  TRACK 163 AUDIO
    TITLE "0:"
    INDEX 01 03:44:65
  TRACK 164 AUDIO
    TITLE "20:cjc171_11832"
    INDEX 01 03:45:23
  TRACK 165 AUDIO
    TITLE "0:"
    INDEX 01 03:47:50
  TRACK 166 AUDIO
    TITLE "21:cjc171_11833"
    INDEX 01 03:48:47
  TRACK 167 AUDIO
    TITLE "0:"
    INDEX 01 03:50:64
  TRACK 168 AUDIO
    TITLE "22:cjc171_11834"
    INDEX 01 03:51:22
  TRACK 169 AUDIO
    TITLE "0:"
    INDEX 01 03:53:15
  TRACK 170 AUDIO
    TITLE "23:cjc171_11835"
    INDEX 01 03:53:37
  TRACK 171 AUDIO
    TITLE "0:"
    INDEX 01 03:55:32
  TRACK 172 AUDIO
    TITLE "19:cjc171_11836"
    INDEX 01 03:56:27
  TRACK 173 AUDIO
    TITLE "0:"
    INDEX 01 03:57:36
  TRACK 174 AUDIO
    TITLE "20:cjc171_11837"
    INDEX 01 03:57:66
  TRACK 175 AUDIO
    TITLE "0:"
    INDEX 01 04:00:35
  TRACK 176 AUDIO
    TITLE "21:cjc171_11838"
    INDEX 01 04:01:32
  TRACK 177 AUDIO
    TITLE "0:"
    INDEX 01 04:04:56
  TRACK 178 AUDIO
    TITLE "22:cjc171_11839"
    INDEX 01 04:05:14
  TRACK 179 AUDIO
    TITLE "0:"
    INDEX 01 04:07:64
  TRACK 180 AUDIO
    TITLE "23:cjc171_11840"
    INDEX 01 04:08:13
  TRACK 181 AUDIO
    TITLE "0:"
    INDEX 01 04:10:63
  TRACK 182 AUDIO
    TITLE "19:cjc171_11841"
    INDEX 01 04:11:64
  TRACK 183 AUDIO
    TITLE "0:"
    INDEX 01 04:12:69
  TRACK 184 AUDIO
    TITLE "20:cjc171_11842"
    INDEX 01 04:13:35
  TRACK 185 AUDIO
    TITLE "0:"
    INDEX 01 04:17:43
  TRACK 186 AUDIO
    TITLE "21:cjc171_11843"
    INDEX 01 04:18:37
  TRACK 187 AUDIO
    TITLE "0:"
    INDEX 01 04:20:18
  TRACK 188 AUDIO
    TITLE "22:cjc171_11844"
    INDEX 01 04:20:57
  TRACK 189 AUDIO
    TITLE "0:"
    INDEX 01 04:22:52
  TRACK 190 AUDIO
    TITLE "23:cjc171_11845"
    INDEX 01 04:23:06
  TRACK 191 AUDIO
    TITLE "0:"
    INDEX 01 04:25:03
  TRACK 192 AUDIO
    TITLE "19:cjc171_11846"
    INDEX 01 04:26:09
  TRACK 193 AUDIO
    TITLE "0:"
    INDEX 01 04:27:32
  TRACK 194 AUDIO
    TITLE "20:cjc171_11847"
    INDEX 01 04:27:73
  TRACK 195 AUDIO
    TITLE "0:"
    INDEX 01 04:29:33
  TRACK 196 AUDIO
    TITLE "21:cjc171_11848"
    INDEX 01 04:30:32
  TRACK 197 AUDIO
    TITLE "0:"
    INDEX 01 04:32:58
  TRACK 198 AUDIO
    TITLE "22:cjc171_11849"
    INDEX 01 04:33:22
  TRACK 199 AUDIO
    TITLE "0:"
    INDEX 01 04:35:55
  TRACK 200 AUDIO
    TITLE "23:cjc171_11850"
    INDEX 01 04:36:09
  TRACK 201 AUDIO
    TITLE "0:"
    INDEX 01 04:38:43
  TRACK 202 AUDIO
    TITLE "19:cjc171_11851"
    INDEX 01 04:39:47
  TRACK 203 AUDIO
    TITLE "0:"
    INDEX 01 04:40:54
  TRACK 204 AUDIO
    TITLE "20:cjc171_11852"
    INDEX 01 04:41:18
  TRACK 205 AUDIO
    TITLE "0:"
    INDEX 01 04:44:05
  TRACK 206 AUDIO
    TITLE "21:cjc171_11853"
    INDEX 01 04:45:06
  TRACK 207 AUDIO
    TITLE "0:"
    INDEX 01 04:47:64
  TRACK 208 AUDIO
    TITLE "22:cjc171_11854"
    INDEX 01 04:48:30
  TRACK 209 AUDIO
    TITLE "0:"
    INDEX 01 04:50:15
  TRACK 210 AUDIO
    TITLE "23:cjc171_11855"
    INDEX 01 04:50:44
  TRACK 211 AUDIO
    TITLE "0:"
    INDEX 01 04:52:32
  TRACK 212 AUDIO
    TITLE "19:cjc171_11856"
    INDEX 01 04:53:31
  TRACK 213 AUDIO
    TITLE "0:"
    INDEX 01 04:54:54
  TRACK 214 AUDIO
    TITLE "20:cjc171_11857"
    INDEX 01 04:55:16
  TRACK 215 AUDIO
    TITLE "0:"
    INDEX 01 04:57:60
  TRACK 216 AUDIO
    TITLE "21:cjc171_11858"
    INDEX 01 04:58:60
  TRACK 217 AUDIO
    TITLE "0:"
    INDEX 01 05:01:17
  TRACK 218 AUDIO
    TITLE "22:cjc171_11859"
    INDEX 01 05:01:52
  TRACK 219 AUDIO
    TITLE "0:"
    INDEX 01 05:03:65
  TRACK 220 AUDIO
    TITLE "23:cjc171_11860"
    INDEX 01 05:04:09
  TRACK 221 AUDIO
    TITLE "0:"
    INDEX 01 05:06:22
  TRACK 222 AUDIO
    TITLE "19:cjc171_11861"
    INDEX 01 05:07:17
  TRACK 223 AUDIO
    TITLE "0:"
    INDEX 01 05:08:29
  TRACK 224 AUDIO
    TITLE "20:cjc171_11862"
    INDEX 01 05:08:64
  TRACK 225 AUDIO
    TITLE "0:"
    INDEX 01 05:10:31
  TRACK 226 AUDIO
    TITLE "21:cjc171_11863"
    INDEX 01 05:11:39
  TRACK 227 AUDIO
    TITLE "0:"
    INDEX 01 05:13:69
  TRACK 228 AUDIO
    TITLE "22:cjc171_11864"
    INDEX 01 05:14:29
  TRACK 229 AUDIO
    TITLE "0:"
    INDEX 01 05:16:48
  TRACK 230 AUDIO
    TITLE "23:cjc171_11865"
    INDEX 01 05:16:67
  TRACK 231 AUDIO
    TITLE "0:"
    INDEX 01 05:19:11
  TRACK 232 AUDIO
    TITLE "19:cjc171_11866"
    INDEX 01 05:20:04
  TRACK 233 AUDIO
    TITLE "0:"
    INDEX 01 05:21:25
  TRACK 234 AUDIO
    TITLE "20:cjc171_11867"
    INDEX 01 05:21:59
  TRACK 235 AUDIO
    TITLE "0:"
    INDEX 01 05:22:70
  TRACK 236 AUDIO
    TITLE "21:cjc171_11868"
    INDEX 01 05:23:67
  TRACK 237 AUDIO
    TITLE "0:"
    INDEX 01 05:25:39
  TRACK 238 AUDIO
    TITLE "22:cjc171_11869"
    INDEX 01 05:25:72
  TRACK 239 AUDIO
    TITLE "0:"
    INDEX 01 05:27:57
  TRACK 240 AUDIO
    TITLE "23:cjc171_11870"
    INDEX 01 05:28:02
  TRACK 241 AUDIO
    TITLE "0:"
    INDEX 01 05:29:60
  TRACK 242 AUDIO
    TITLE "19:cjc171_11871"
    INDEX 01 05:30:62
  TRACK 243 AUDIO
    TITLE "0:"
    INDEX 01 05:31:71
  TRACK 244 AUDIO
    TITLE "20:cjc171_11872"
    INDEX 01 05:32:35
  TRACK 245 AUDIO
    TITLE "0:"
    INDEX 01 05:35:29
  TRACK 246 AUDIO
    TITLE "21:cjc171_11873"
    INDEX 01 05:36:31
  TRACK 247 AUDIO
    TITLE "0:"
    INDEX 01 05:38:43
  TRACK 248 AUDIO
    TITLE "22:cjc171_11874"
    INDEX 01 05:39:10
  TRACK 249 AUDIO
    TITLE "0:"
    INDEX 01 05:41:07
  TRACK 250 AUDIO
    TITLE "23:cjc171_11875"
    INDEX 01 05:41:38
  TRACK 251 AUDIO
    TITLE "0:"
    INDEX 01 05:43:35
  TRACK 252 AUDIO
    TITLE "19:cjc171_11876"
    INDEX 01 05:44:40
  TRACK 253 AUDIO
    TITLE "0:"
    INDEX 01 05:45:47
  TRACK 254 AUDIO
    TITLE "20:cjc171_11877"
    INDEX 01 05:46:12
  TRACK 255 AUDIO
    TITLE "0:"
    INDEX 01 05:48:52
  TRACK 256 AUDIO
    TITLE "21:cjc171_11878"
    INDEX 01 05:49:49
  TRACK 257 AUDIO
    TITLE "0:"
    INDEX 01 05:52:48
  TRACK 258 AUDIO
    TITLE "22:cjc171_11879"
    INDEX 01 05:53:12
  TRACK 259 AUDIO
    TITLE "0:"
    INDEX 01 05:55:65
  TRACK 260 AUDIO
    TITLE "23:cjc171_11880"
    INDEX 01 05:56:20
  TRACK 261 AUDIO
    TITLE "0:"
    INDEX 01 05:58:74
  TRACK 262 AUDIO
    TITLE "19:cjc171_11881"
    INDEX 01 06:00:02
  TRACK 263 AUDIO
    TITLE "0:"
    INDEX 01 06:01:03
  TRACK 264 AUDIO
    TITLE "20:cjc171_11882"
    INDEX 01 06:01:37
  TRACK 265 AUDIO
    TITLE "0:"
    INDEX 01 06:03:30
  TRACK 266 AUDIO
    TITLE "21:cjc171_11883"
    INDEX 01 06:04:29
  TRACK 267 AUDIO
    TITLE "0:"
    INDEX 01 06:06:46
  TRACK 268 AUDIO
    TITLE "22:cjc171_11884"
    INDEX 01 06:07:10
  TRACK 269 AUDIO
    TITLE "0:"
    INDEX 01 06:09:52
  TRACK 270 AUDIO
    TITLE "23:cjc171_11885"
    INDEX 01 06:10:06
  TRACK 271 AUDIO
    TITLE "0:"
    INDEX 01 06:12:50
  TRACK 272 AUDIO
    TITLE "19:cjc171_11886"
    INDEX 01 06:13:50
  TRACK 273 AUDIO
    TITLE "0:"
    INDEX 01 06:14:73
  TRACK 274 AUDIO
    TITLE "20:cjc171_11887"
    INDEX 01 06:15:35
  TRACK 275 AUDIO
    TITLE "0:"
    INDEX 01 06:16:73
  TRACK 276 AUDIO
    TITLE "21:cjc171_11888"
    INDEX 01 06:17:75
  TRACK 277 AUDIO
    TITLE "0:"
    INDEX 01 06:20:14
  TRACK 278 AUDIO
    TITLE "22:cjc171_11889"
    INDEX 01 06:20:50
  TRACK 279 AUDIO
    TITLE "0:"
    INDEX 01 06:23:01
  TRACK 280 AUDIO
    TITLE "23:cjc171_11890"
    INDEX 01 06:23:25
  TRACK 281 AUDIO
    TITLE "0:"
    INDEX 01 06:25:49
  TRACK 282 AUDIO
    TITLE "19:cjc171_11891"
    INDEX 01 06:26:44
  TRACK 283 AUDIO
    TITLE "0:"
    INDEX 01 06:27:67
  TRACK 284 AUDIO
    TITLE "20:cjc171_11892"
    INDEX 01 06:28:30
  TRACK 285 AUDIO
    TITLE "0:"
    INDEX 01 06:30:56
  TRACK 286 AUDIO
    TITLE "21:cjc171_11893"
    INDEX 01 06:31:53
  TRACK 287 AUDIO
    TITLE "0:"
    INDEX 01 06:33:62
  TRACK 288 AUDIO
    TITLE "22:cjc171_11894"
    INDEX 01 06:34:26
  TRACK 289 AUDIO
    TITLE "0:"
    INDEX 01 06:36:45
  TRACK 290 AUDIO
    TITLE "23:cjc171_11895"
    INDEX 01 06:36:68
  TRACK 291 AUDIO
    TITLE "0:"
    INDEX 01 06:39:12
  TRACK 292 AUDIO
    TITLE "19:cjc171_11896"
    INDEX 01 06:40:07
  TRACK 293 AUDIO
    TITLE "0:"
    INDEX 01 06:41:34
  TRACK 294 AUDIO
    TITLE "20:cjc171_11897"
    INDEX 01 06:41:70
  TRACK 295 AUDIO
    TITLE "0:"
    INDEX 01 06:44:48
  TRACK 296 AUDIO
    TITLE "21:cjc171_11898"
    INDEX 01 06:45:50
  TRACK 297 AUDIO
    TITLE "0:"
    INDEX 01 06:48:75
  TRACK 298 AUDIO
    TITLE "22:cjc171_11899"
    INDEX 01 06:49:40
  TRACK 299 AUDIO
    TITLE "0:"
    INDEX 01 06:52:38
  TRACK 300 AUDIO
    TITLE "23:cjc171_11900"
    INDEX 01 06:52:65
  TRACK 301 AUDIO
    TITLE "0:"
    INDEX 01 06:55:62
